Coordinates
version=1
nRows=20
nColumns=38
inDegrees=no

Units are S.I. units (second, meters, Newtons, ...)
If the header above contains a line with 'inDegrees', this indicates whether rotational values are in degrees (yes) or radians (no).

endheader
time	pelvis_tilt	pelvis_list	pelvis_rotation	pelvis_tx	pelvis_ty	pelvis_tz	hip_flexion_r	hip_adduction_r	hip_rotation_r	knee_angle_r	ankle_angle_r	subtalar_angle_r	mtp_angle_r	hip_flexion_l	hip_adduction_l	hip_rotation_l	knee_angle_l	ankle_angle_l	subtalar_angle_l	mtp_angle_l	lumbar_extension	lumbar_bending	lumbar_rotation	arm_flex_r	arm_add_r	arm_rot_r	elbow_flex_r	pro_sup_r	wrist_flex_r	wrist_dev_r	arm_flex_l	arm_add_l	arm_rot_l	elbow_flex_l	pro_sup_l	wrist_flex_l	wrist_dev_l
1.37	-2.6037	1.28657	-1.90262	0.737891	0.788154	0.908064	-0.411853	-0.224907	-0.661296	0.556259	0.074399	0	0	0.0505891	0.165441	-0.0211277	0.0699583	-0.277147	0	0	-0.192655	-0.0504631	0.185311	-0.339621	-0.826023	-0.235767	1.74812	0.423886	0	0	0.800874	-0.53168	1.09859	1.11616	0.456331	0	0
1.38	-2.5973	1.28665	-1.91185	0.735407	0.798699	0.906818	-0.418339	-0.23115	-0.655616	0.566987	0.0681331	0	0	0.0465725	0.170408	-0.014544	0.0956831	-0.271274	0	0	-0.190488	-0.0520872	0.188416	-0.346243	-0.82672	-0.240477	1.75034	0.420157	0	0	0.800925	-0.528614	1.0998	1.11381	0.45449	0	0
1.39	-2.58827	1.28439	-1.92444	0.732812	0.809291	0.905972	-0.426479	-0.238557	-0.646115	0.575932	0.066815	0	0	0.0395995	0.177705	-0.0111849	0.111876	-0.27443	0	0	-0.190712	-0.0553334	0.191503	-0.352152	-0.826406	-0.245266	1.75254	0.419921	0	0	0.799805	-0.526203	1.09888	1.1125	0.455223	0	0
1.4	-2.5739	1.28211	-1.94148	0.730026	0.819896	0.905291	-0.43278	-0.247997	-0.63589	0.587341	0.0610975	0	0	0.034772	0.186355	-0.00827397	0.123708	-0.279279	0	0	-0.190921	-0.0608711	0.192066	-0.355813	-0.825859	-0.246856	1.75394	0.42093	0	0	0.799007	-0.527869	1.09992	1.11586	0.454617	0	0
1.41	-2.55517	1.28026	-1.96162	0.727093	0.830534	0.90484	-0.437013	-0.258093	-0.623902	0.600791	0.0526747	0	0	0.0304707	0.194848	-0.00504021	0.129356	-0.294632	0	0	-0.189913	-0.067394	0.191789	-0.360054	-0.823923	-0.248661	1.75479	0.422287	0	0	0.79717	-0.528345	1.09986	1.11765	0.453397	0	0
1.42	-2.53462	1.27888	-1.98286	0.724058	0.841229	0.904581	-0.438998	-0.268428	-0.610132	0.615851	0.0399007	0	0	0.0265218	0.203146	-0.00357446	0.132531	-0.319925	0	0	-0.188031	-0.074375	0.190699	-0.364113	-0.820502	-0.250515	1.75495	0.42318	0	0	0.795097	-0.529563	1.10035	1.11996	0.453289	0	0
1.43	-2.51405	1.278	-2.00402	0.720863	0.851977	0.904489	-0.438081	-0.279331	-0.593964	0.633798	0.0235943	0	0	0.0237258	0.211364	-0.00495763	0.137382	-0.34337	0	0	-0.185136	-0.0807064	0.189944	-0.369346	-0.817725	-0.252915	1.75478	0.424709	0	0	0.791993	-0.529456	1.09999	1.12082	0.453822	0	0
1.44	-2.49368	1.2781	-2.0245	0.717427	0.862737	0.904535	-0.4331	-0.29111	-0.575921	0.656744	-9.87183e-05	0	0	0.0236462	0.219232	-0.0046817	0.14871	-0.360964	0	0	-0.180561	-0.0857526	0.189709	-0.376406	-0.815481	-0.255632	1.75476	0.427512	0	0	0.787969	-0.526641	1.09885	1.11844	0.455302	0	0
1.45	-2.47664	1.27804	-2.04061	0.713807	0.873419	0.904828	-0.42604	-0.303123	-0.557177	0.683645	-0.028172	0	0	0.0249117	0.226273	0.00215075	0.169458	-0.367793	0	0	-0.176853	-0.0900076	0.187379	-0.381554	-0.81411	-0.256551	1.75352	0.430971	0	0	0.784051	-0.525953	1.09866	1.11837	0.457756	0	0
1.46	-2.45901	1.28194	-2.05592	0.709927	0.88395	0.905118	-0.414335	-0.313648	-0.521741	0.710409	-0.0810797	0	0	0.032885	0.232686	0.0227726	0.204367	-0.350161	0	0	-0.168706	-0.09139	0.185085	-0.38836	-0.810567	-0.259931	1.75177	0.437349	0	0	0.777434	-0.521071	1.09479	1.11326	0.465449	0	0
1.47	-2.45157	1.28337	-2.06264	0.706266	0.894284	0.905873	-0.405536	-0.32308	-0.469142	0.734799	-0.110131	0	0	0.0342285	0.238006	0.0432853	0.232054	-0.339157	0	0	-0.165213	-0.0914244	0.183329	-0.393307	-0.809477	-0.261613	1.74999	0.443694	0	0	0.772043	-0.517727	1.09206	1.11032	0.470542	0	0
1.48	-2.45077	1.28408	-2.06308	0.702625	0.904407	0.90704	-0.398303	-0.331365	-0.40169	0.747533	-0.181514	0	0	0.0302937	0.242431	0.0636318	0.251818	-0.322583	0	0	-0.163558	-0.0895365	0.181768	-0.397777	-0.811536	-0.261572	1.74811	0.439477	0	0	0.766564	-0.513355	1.08904	1.10612	0.47398	0	0
1.49	-2.44998	1.2816	-2.06302	0.699155	0.914598	0.908424	-0.382374	-0.345368	-0.376732	0.787677	-0.241171	0	0	0.0190999	0.247974	0.0782094	0.260948	-0.312296	0	0	-0.164749	-0.0895624	0.180016	-0.40241	-0.811867	-0.263001	1.7466	0.442674	0	0	0.762745	-0.50956	1.08755	1.10252	0.476208	0	0
1.5	-2.44953	1.27786	-2.06361	0.695937	0.924548	0.909861	-0.362139	-0.360654	-0.35335	0.834045	-0.301803	0	0	0.0043106	0.25349	0.0861889	0.263512	-0.305284	0	0	-0.168144	-0.0907708	0.178027	-0.40444	-0.812168	-0.263195	1.74517	0.442701	0	0	0.760087	-0.508638	1.08719	1.10246	0.47608	0	0
1.51	-2.44965	1.26453	-2.05916	0.692541	0.935315	0.911548	-0.328601	-0.394783	-0.47453	0.936378	-0.36039	0	0	-0.0263685	0.262143	0.0852263	0.254001	-0.303247	0	0	-0.179253	-0.096796	0.172045	-0.40947	-0.81209	-0.26498	1.74723	0.440173	0	0	0.761429	-0.510724	1.09224	1.10601	0.472068	0	0
1.52	-2.44796	1.27041	-2.0698	0.690126	0.944043	0.912394	-0.305736	-0.391639	-0.305632	0.936399	-0.445889	0	0	-0.0298527	0.262921	0.0839356	0.256743	-0.291437	0	0	-0.175023	-0.0933379	0.17852	-0.4088	-0.814119	-0.265093	1.74445	0.442999	0	0	0.754969	-0.505975	1.08383	1.10212	0.476684	0	0
1.53	-2.44685	1.26702	-2.07486	0.687499	0.953515	0.913431	-0.271525	-0.40573	-0.281336	0.99065	-0.494591	0	0	-0.0478582	0.266963	0.0815502	0.250628	-0.28534	0	0	-0.178607	-0.0947333	0.179382	-0.409201	-0.816079	-0.26561	1.74445	0.441812	0	0	0.753352	-0.50651	1.08271	1.10412	0.47649	0	0
1.54	-2.44845	1.25211	-2.07089	0.684494	0.963868	0.914965	-0.233031	-0.441538	-0.407956	1.08971	-0.521963	0	0	-0.0838594	0.274735	0.0791108	0.233788	-0.283519	0	0	-0.192292	-0.101433	0.172845	-0.410615	-0.817777	-0.265707	1.74764	0.440072	0	0	0.755957	-0.512841	1.08782	1.11257	0.473866	0	0
1.55	-2.44854	1.25987	-2.08289	0.683229	0.972027	0.915661	-0.199862	-0.428138	-0.235944	1.09434	-0.570253	0	0	-0.0867055	0.272186	0.080026	0.23178	-0.276865	0	0	-0.187147	-0.097765	0.181628	-0.40574	-0.817802	-0.263844	1.74467	0.442098	0	0	0.751222	-0.509004	1.08005	1.10802	0.476218	0	0
1.56	-2.45506	1.2448	-2.07326	0.680582	0.982143	0.917525	-0.163938	-0.461982	-0.361833	1.18286	-0.598819	0	0	-0.124374	0.27731	0.0807965	0.211378	-0.278924	0	0	-0.201797	-0.103384	0.173823	-0.404554	-0.816954	-0.263536	1.74665	0.442638	0	0	0.753807	-0.515009	1.08478	1.11483	0.473777	0	0
